<?xml version="1.0" standalone="no"?>
<!DOCTYPE svg PUBLIC "-//W3C//DTD SVG 20010904//EN"
 "http://www.w3.org/TR/2001/REC-SVG-20010904/DTD/svg10.dtd">
<svg version="1.0" xmlns="http://www.w3.org/2000/svg"
 width="96.000000pt" height="72.000000pt" viewBox="0 0 96.000000 72.000000"
 preserveAspectRatio="xMidYMid meet">

<g transform="translate(0.000000,72.000000) scale(0.100000,-0.100000)"
fill="#000000" stroke="none">
<path d="M795 677 c-39 -18 -96 -44 -127 -57 -32 -13 -58 -27 -58 -32 0 -4 -7
-4 -17 -1 -12 5 -14 3 -8 -7 6 -10 4 -12 -9 -7 -9 4 -15 3 -12 -1 5 -8 -103
-56 -184 -81 -99 -32 -349 -136 -334 -140 14 -3 12 -6 -11 -17 -29 -14 -28
-14 25 -10 30 2 93 17 140 31 47 15 106 29 131 31 26 2 96 19 155 38 60 19
125 37 144 41 19 4 46 13 60 20 14 7 44 21 67 30 48 20 87 55 61 55 -8 0 -18
-3 -22 -7 -4 -4 -13 -8 -19 -8 -7 -1 -37 -13 -68 -27 -82 -39 -139 -52 -153
-37 -7 7 -7 10 0 6 15 -8 157 38 208 68 24 14 50 25 58 25 9 0 21 6 27 14 10
12 8 13 -10 9 -15 -4 -20 -3 -15 5 4 7 13 12 20 12 7 0 25 14 39 30 26 29 56
42 41 18 -5 -7 -3 -8 5 -3 9 5 9 11 3 17 -7 7 -28 1 -66 -21 -60 -33 -91 -43
-41 -13 33 21 63 52 48 52 -5 0 -40 -15 -78 -33z m-155 -117 c-8 -5 -19 -10
-25 -10 -5 0 -3 5 5 10 8 5 20 10 25 10 6 0 3 -5 -5 -10z m-60 -24 c-14 -7
-36 -16 -50 -20 -14 -3 -7 3 15 13 45 22 73 27 35 7z m-134 -51 c-11 -8 -27
-15 -35 -15 -9 1 -2 7 14 15 39 18 44 18 21 0z m-86 -65 c-8 -5 -22 -9 -30 -9
-10 0 -8 3 5 9 27 12 43 12 25 0z"/>
<path d="M470 629 c1 -8 7 -27 14 -44 11 -25 15 -27 21 -13 4 11 -1 27 -14 44
-12 15 -21 20 -21 13z"/>
<path d="M444 588 c3 -13 6 -26 6 -30 0 -8 30 -11 30 -4 0 3 -4 16 -10 30 -12
32 -35 35 -26 4z"/>
<path d="M305 569 c5 -33 5 -33 -6 -6 -19 47 -31 31 -23 -30 3 -32 7 -59 8
-60 2 -2 21 4 43 13 35 14 40 20 39 44 -1 27 -16 56 -16 32 0 -7 -4 -12 -10
-12 -5 0 -10 6 -10 14 0 7 -7 19 -15 26 -13 11 -14 8 -10 -21z"/>
<path d="M390 526 c0 -9 5 -16 10 -16 6 0 10 4 10 9 0 6 -4 13 -10 16 -5 3
-10 -1 -10 -9z"/>
<path d="M570 422 c0 -10 -4 -22 -9 -27 -5 -6 -11 -19 -14 -30 -3 -11 -3 0 -1
24 3 36 1 42 -12 37 -9 -3 -17 -6 -20 -6 -2 0 -1 -13 3 -30 3 -19 1 -30 -6
-30 -6 0 -11 11 -11 25 0 14 -4 25 -8 25 -9 0 -8 -52 5 -260 4 -70 9 -97 14
-80 7 24 7 24 8 -5 1 -27 2 -28 17 -13 11 10 18 42 21 97 3 44 9 81 14 81 8 0
15 45 23 148 3 49 1 62 -10 62 -8 0 -14 -8 -14 -18z m-53 -124 c-3 -7 -5 -2
-5 12 0 14 2 19 5 13 2 -7 2 -19 0 -25z m30 -45 c-2 -16 -4 -5 -4 22 0 28 2
40 4 28 2 -13 2 -35 0 -50z"/>
<path d="M396 383 c-8 -8 -13 -9 -40 -12 -8 0 -17 -9 -19 -18 -4 -17 -5 -17
-6 0 0 10 -5 15 -11 12 -11 -7 -3 -312 8 -330 4 -5 10 4 13 20 l7 30 1 -35 2
-35 13 25 c7 14 16 59 20 100 4 41 11 77 16 80 13 8 26 170 13 170 -5 0 -13
-3 -17 -7z m-19 -55 c-3 -7 -5 -2 -5 12 0 14 2 19 5 13 2 -7 2 -19 0 -25z
m-34 -33 c4 -8 2 -17 -3 -20 -6 -4 -10 3 -10 14 0 25 6 27 13 6z m34 -17 c-3
-8 -6 -5 -6 6 -1 11 2 17 5 13 3 -3 4 -12 1 -19z m0 -55 c-3 -10 -5 -4 -5 12
0 17 2 24 5 18 2 -7 2 -21 0 -30z"/>
</g>
</svg>
